<svg width="18" height="18" viewBox="0 0 18 18" fill="none" xmlns="http://www.w3.org/2000/svg">
<path d="M5.25 15H8.25C8.25 15.825 7.575 16.5 6.75 16.5C5.925 16.5 5.25 15.825 5.25 15ZM3.75 14.25H9.75V12.75H3.75V14.25ZM12.375 7.125C12.375 9.99 10.38 11.52 9.5475 12H3.9525C3.12 11.52 1.125 9.99 1.125 7.125C1.125 4.02 3.645 1.5 6.75 1.5C9.855 1.5 12.375 4.02 12.375 7.125ZM16.0275 5.5275L15 6L16.0275 6.4725L16.5 7.5L16.9725 6.4725L18 6L16.9725 5.5275L16.5 4.5L16.0275 5.5275ZM14.25 4.5L14.955 2.955L16.5 2.25L14.955 1.545L14.25 0L13.545 1.545L12 2.25L13.545 2.955L14.25 4.5Z" fill="white"/>
</svg>
