<svg width="18" height="18" viewBox="0 0 18 18" fill="none" xmlns="http://www.w3.org/2000/svg">
<g clip-path="url(#clip0_2_83)">
<path d="M13.1232 0.550293C14.5456 0.550293 15.714 1.00185 16.6284 1.90495C17.5428 2.80805 18 3.97645 18 5.41012V6.42612C18 9.64343 14.9972 13.3292 8.99153 17.4835C2.99718 13.3405 0 9.65471 0 6.42612V5.41012C0 3.97645 0.454374 2.80805 1.36312 1.90495C2.27187 1.00185 3.43744 0.550293 4.85983 0.550293C5.77422 0.550293 6.53057 0.722447 7.12888 1.06676C7.72719 1.41106 8.34807 1.96704 8.99153 2.73468C9.64628 1.96704 10.2728 1.41106 10.8711 1.06676C11.4694 0.722447 12.2201 0.550293 13.1232 0.550293Z" fill="#6B27D9"/>
</g>
<defs>
<clipPath id="clip0_2_83">
<rect width="18" height="18" fill="white"/>
</clipPath>
</defs>
</svg>
