<svg width="19" height="19" viewBox="0 0 19 19" fill="none" xmlns="http://www.w3.org/2000/svg">
<g clip-path="url(#clip0_2_80)">
<path d="M9.39005 0.131958C11.985 0.131958 14.1987 1.04824 16.0312 2.8808C17.8638 4.71336 18.7801 6.91977 18.7801 9.50001C18.7801 12.0803 17.8638 14.2867 16.0312 16.1192C14.1987 17.9518 11.985 18.8681 9.39005 18.8681C6.79514 18.8681 4.5814 17.9518 2.74884 16.1192C0.916281 14.2867 0 12.0803 0 9.50001C0 6.91977 0.916281 4.71336 2.74884 2.8808C4.5814 1.04824 6.79514 0.131958 9.39005 0.131958ZM9.39005 17.0208C11.4572 17.0208 13.2238 16.2878 14.6898 14.8218C16.1559 13.3557 16.8889 11.5818 16.8889 9.50001C16.8889 7.41822 16.1559 5.6443 14.6898 4.17825C13.2238 2.7122 11.4572 1.97918 9.39005 1.97918C7.32292 1.97918 5.55633 2.7122 4.09028 4.17825C2.62423 5.6443 1.8912 7.41822 1.8912 9.50001C1.8912 11.5818 2.62423 13.3557 4.09028 14.8218C5.55633 16.2878 7.32292 17.0208 9.39005 17.0208ZM9.85185 4.79399V9.71992L14.0741 12.2269L13.3704 13.4144L8.44444 10.4236V4.79399H9.85185Z" fill="#6B27D9"/>
</g>
<defs>
<clipPath id="clip0_2_80">
<rect width="19" height="19" fill="white"/>
</clipPath>
</defs>
</svg>
