<svg width="18" height="14" viewBox="0 0 18 14" fill="none" xmlns="http://www.w3.org/2000/svg">
<path fill-rule="evenodd" clip-rule="evenodd" d="M9.9 2.06753C9.90005 1.85408 9.82422 1.64756 9.68607 1.48484C9.54792 1.32213 9.35643 1.21381 9.1458 1.17923L2.0907 0.0236292C1.83313 -0.018521 1.56948 -0.00415586 1.31802 0.0657287C1.06656 0.135613 0.833304 0.259345 0.634421 0.428349C0.435538 0.597352 0.275786 0.807584 0.166238 1.04447C0.0566901 1.28136 -3.32068e-05 1.53924 1.45843e-08 1.80023V10.5635C0.000177789 10.9924 0.153504 11.4072 0.432361 11.7331C0.711218 12.0589 1.09728 12.2745 1.521 12.341L8.8605 13.4894C8.98892 13.5096 9.12019 13.5017 9.24526 13.4662C9.37033 13.4308 9.48625 13.3687 9.58503 13.2842C9.68381 13.1997 9.76312 13.0948 9.81749 12.9768C9.87186 12.8587 9.90001 12.7302 9.9 12.6002V2.06753ZM1.8 10.5635V1.80023L8.1 2.83253V11.5481L1.8 10.5635Z" fill="#7734D9"/>
<path fill-rule="evenodd" clip-rule="evenodd" d="M18 1.80023C18 1.53924 17.9433 1.28136 17.8338 1.04447C17.7242 0.807584 17.5645 0.597352 17.3656 0.428349C17.1667 0.259345 16.9334 0.135613 16.682 0.0657287C16.4305 -0.00415586 16.1669 -0.018521 15.9093 0.0236292L8.85421 1.17923C8.64357 1.21381 8.45209 1.32213 8.31393 1.48484C8.17578 1.64756 8.09996 1.85408 8.10001 2.06753V12.6002C8.1 12.7302 8.12814 12.8587 8.18252 12.9768C8.23689 13.0948 8.31619 13.1997 8.41498 13.2842C8.51376 13.3687 8.62967 13.4308 8.75475 13.4662C8.87982 13.5017 9.01108 13.5096 9.13951 13.4894L16.4781 12.341C16.902 12.2747 17.2883 12.0592 17.5673 11.7333C17.8463 11.4074 17.9998 10.9926 18 10.5635V1.80023ZM16.2 10.5635L9.90001 11.5481V2.83253L16.2 1.80023V10.5635Z" fill="#7734D9"/>
</svg>
