<svg width="18" height="18" viewBox="0 0 18 18" fill="none" xmlns="http://www.w3.org/2000/svg">
<g clip-path="url(#clip0_2_238)">
<path d="M15.3416 2.65839H15.3405L17.226 3.03526C17.3273 3.05551 17.4105 3.12976 17.4397 3.22989C17.4545 3.27852 17.4558 3.33026 17.4436 3.37958C17.4313 3.42891 17.4059 3.47398 17.37 3.51001L15.8254 5.05576C15.6406 5.24022 15.3901 5.34381 15.129 5.34376H13.8488L10.6312 8.56239C10.6926 8.79416 10.7039 9.03636 10.6644 9.27284C10.6248 9.50932 10.5353 9.73465 10.4018 9.93383C10.2684 10.133 10.094 10.3015 9.89029 10.428C9.68661 10.5544 9.45831 10.6361 9.2206 10.6674C8.98289 10.6988 8.74124 10.6791 8.51173 10.6097C8.28222 10.5404 8.07013 10.4229 7.88958 10.2651C7.70904 10.1073 7.56419 9.9129 7.46468 9.69476C7.36517 9.47662 7.3133 9.23978 7.3125 9.00001C7.31267 8.74114 7.37236 8.48577 7.48695 8.25364C7.60154 8.02151 7.76797 7.81884 7.97337 7.66128C8.17877 7.50372 8.41765 7.3955 8.67154 7.34497C8.92544 7.29444 9.18755 7.30297 9.43762 7.36989L12.6562 4.15014V2.87101C12.6562 2.61001 12.7597 2.35914 12.9442 2.17464L14.49 0.628887C14.526 0.593032 14.5711 0.567612 14.6204 0.55533C14.6698 0.543048 14.7215 0.544364 14.7701 0.559137C14.8702 0.588387 14.9445 0.671637 14.9648 0.772887L15.3416 2.65839Z" fill="white"/>
<path d="M2.25003 9.00002C2.25119 9.96523 2.45933 10.919 2.86042 11.7969C3.26151 12.6748 3.84622 13.4565 4.5751 14.0892C5.30398 14.722 6.16008 15.191 7.08566 15.4648C8.01123 15.7385 8.98475 15.8106 9.94054 15.6761C10.8963 15.5416 11.8122 15.2037 12.6263 14.6852C13.4404 14.1666 14.1338 13.4795 14.6598 12.6702C15.1857 11.8609 15.532 10.9482 15.6753 9.99372C15.8185 9.0392 15.7554 8.06507 15.4902 7.13702C15.4529 7.02859 15.4381 6.91373 15.4467 6.79941C15.4553 6.68509 15.487 6.57371 15.54 6.47205C15.593 6.37039 15.6661 6.28058 15.7549 6.20808C15.8437 6.13558 15.9464 6.08192 16.0566 6.05035C16.1668 6.01879 16.2823 6.00998 16.396 6.02447C16.5097 6.03896 16.6193 6.07645 16.7181 6.13464C16.8169 6.19283 16.9027 6.27052 16.9705 6.36297C17.0383 6.45542 17.0866 6.5607 17.1124 6.67239C17.626 8.46961 17.5284 10.3865 16.835 12.1223C16.1416 13.8581 14.8916 15.3146 13.2811 16.2633C11.6706 17.2119 9.79073 17.5992 7.9364 17.3642C6.08207 17.1292 4.35821 16.2852 3.03528 14.9648C1.71379 13.6422 0.868952 11.9181 0.633409 10.0634C0.397866 8.20863 0.784956 6.32816 1.73391 4.71723C2.68285 3.10629 4.13992 1.85611 5.87635 1.16298C7.61278 0.46984 9.53023 0.372994 11.3277 0.887644C11.5417 0.950207 11.7222 1.09495 11.8299 1.29023C11.9375 1.48551 11.9634 1.71546 11.9021 1.92982C11.8407 2.14418 11.6969 2.32552 11.5022 2.43421C11.3075 2.54291 11.0777 2.57012 10.863 2.50989C9.85793 2.22152 8.79959 2.17055 7.77144 2.36102C6.74328 2.55148 5.77342 2.97817 4.93832 3.60744C4.10322 4.23671 3.4257 5.05137 2.95918 5.98718C2.49267 6.92299 2.2499 7.95437 2.25003 9.00002Z" fill="white"/>
<path d="M5.62505 8.99995C5.62512 9.61487 5.79307 10.2181 6.11078 10.7446C6.4285 11.271 6.88393 11.7008 7.42794 11.9874C7.97195 12.2741 8.58391 12.4068 9.19779 12.3712C9.81167 12.3356 10.4042 12.1331 10.9114 11.7855C11.4186 11.437 11.8208 10.9565 12.0746 10.3959C12.3284 9.83537 12.4241 9.2161 12.3514 8.60508C12.3318 8.4568 12.352 8.30597 12.41 8.1681C12.468 8.03024 12.5617 7.91032 12.6814 7.82071C12.8012 7.73109 12.9427 7.67502 13.0913 7.65825C13.2399 7.64149 13.3903 7.66464 13.527 7.72533C13.6637 7.78523 13.7821 7.8803 13.87 8.00086C13.958 8.12141 14.0124 8.26314 14.0277 8.41158C14.1499 9.45569 13.9441 10.512 13.4388 11.4338C12.9334 12.3556 12.1537 13.0972 11.2077 13.5558C10.2617 14.0143 9.19646 14.167 8.15978 13.9926C7.1231 13.8182 6.16641 13.3255 5.42251 12.5827C4.6786 11.8399 4.18438 10.884 4.00843 9.84757C3.83248 8.81115 3.98354 7.74567 4.44063 6.799C4.89773 5.85234 5.63819 5.07144 6.55924 4.56471C7.4803 4.05798 8.53625 3.85055 9.58055 3.9712C9.69237 3.98158 9.80099 4.01417 9.90005 4.06707C9.99911 4.11997 10.0866 4.19211 10.1574 4.27927C10.2283 4.36642 10.281 4.46684 10.3125 4.57463C10.344 4.68242 10.3536 4.79541 10.3409 4.90699C10.3282 5.01857 10.2933 5.12648 10.2383 5.2244C10.1834 5.32232 10.1094 5.40829 10.0208 5.47725C9.93212 5.54622 9.83062 5.59679 9.72219 5.62602C9.61376 5.65525 9.50058 5.66253 9.3893 5.64745C8.91641 5.59255 8.43726 5.6383 7.98332 5.78172C7.52937 5.92514 7.1109 6.16297 6.75539 6.47959C6.39988 6.79621 6.11538 7.18446 5.92057 7.61884C5.72576 8.05321 5.62505 8.52389 5.62505 8.99995Z" fill="white"/>
</g>
<defs>
<clipPath id="clip0_2_238">
<rect width="18" height="18" fill="white"/>
</clipPath>
</defs>
</svg>
